<svg xmlns="http://www.w3.org/2000/svg" xmlns:xlink="http://www.w3.org/1999/xlink" width="218.97" height="95.893" viewBox="0 0 218.97 95.893">
  <defs>
    <clipPath id="clip-path">
      <path id="Clip_29" data-name="Clip 29" d="M0,0H84.483V48.689H0Z" transform="translate(0.214 0.108)" fill="none"/>
    </clipPath>
    <clipPath id="clip-path-2">
      <path id="Clip_36" data-name="Clip 36" d="M0,0H84.483V48.689H0Z" transform="translate(0.296 0.108)" fill="none"/>
    </clipPath>
  </defs>
  <g id="Logo" transform="translate(0 -0.108)">
    <path id="Fill_1" data-name="Fill 1" d="M1.926,24H0L8.7,0H10.3L19,24H17.074l-2.06-5.832H3.986L1.926,24ZM9.5,2.427,4.55,16.551h9.9Z" transform="translate(0 72)" fill="#231f20"/>
    <g id="Group_38" data-name="Group 38" transform="translate(9)">
      <path id="Fill_2" data-name="Fill 2" d="M1.834,24.3H0V0H9.2a7.289,7.289,0,0,1,4.94,1.673,6.258,6.258,0,0,1,1.986,4.848,6.521,6.521,0,0,1-1.511,4.429,6.787,6.787,0,0,1-4.057,2.124L16.4,24.3H14.261l-5.773-11.2H1.834V24.3Zm0-22.666V11.47h7.13c3.388,0,5.331-1.792,5.331-4.917S12.352,1.639,8.964,1.639Z" transform="translate(17.954 71.491)" fill="#231f20"/>
      <path id="Fill_4" data-name="Fill 4" d="M8.285,24.713a8.446,8.446,0,0,1-6.044-2.492C.034,20,0,17.818,0,12.357c0-5.5.034-7.646,2.241-9.865A8.446,8.446,0,0,1,8.285,0c4.346,0,7.4,2.731,8.216,7.1H14.634c-.713-3.379-3.09-5.461-6.349-5.461A6.4,6.4,0,0,0,3.7,3.516C1.969,5.257,1.834,7.168,1.834,12.357s.135,7.1,1.867,8.84a6.4,6.4,0,0,0,4.584,1.878A6.394,6.394,0,0,0,14.7,17.614h1.8c-.815,4.369-3.938,7.1-8.216,7.1" transform="translate(42.674 71.287)" fill="#231f20"/>
      <path id="Fill_6" data-name="Fill 6" d="M14.431,12.869H1.834V24.3H0V0H1.834V11.231h12.6V0h1.833V24.3H14.431Z" transform="translate(66.817 71.491)" fill="#231f20"/>
      <path id="Fill_8" data-name="Fill 8" d="M1.969,24.3H0L8.9,0h1.63l8.894,24.3H17.453l-2.105-5.9H4.075L1.969,24.3ZM9.711,2.458,4.652,16.76H14.77Z" transform="translate(90.687 71.491)" fill="#231f20"/>
      <path id="Fill_10" data-name="Fill 10" d="M1.834,3.175V24.3H0V0H1.834L15.788,21.061V0h1.834V24.3H15.788Z" transform="translate(117.715 71.491)" fill="#231f20"/>
      <path id="Fill_12" data-name="Fill 12" d="M14.634,21.914a8.528,8.528,0,0,1-6.349,2.8,8.447,8.447,0,0,1-6.044-2.492C.034,20,0,17.817,0,12.356c0-5.5.034-7.646,2.241-9.865A8.448,8.448,0,0,1,8.285,0a8.193,8.193,0,0,1,8.25,7.1H14.7A6.393,6.393,0,0,0,8.285,1.639,6.4,6.4,0,0,0,3.7,3.516C1.969,5.256,1.834,7.168,1.834,12.356s.135,7.1,1.867,8.841a6.4,6.4,0,0,0,4.585,1.878,6.479,6.479,0,0,0,5.024-2.356,7.089,7.089,0,0,0,1.46-4.813V13.722H8.285V12.083H16.6v3.96c0,2.56-.509,4.335-1.969,5.871" transform="translate(145.219 71.287)" fill="#231f20"/>
      <path id="Fill_14" data-name="Fill 14" d="M0,0H14.668V1.639H1.834v9.592H12.767v1.638H1.834v9.8H14.668V24.3H0Z" transform="translate(171.636 71.491)" fill="#231f20"/>
      <path id="Fill_16" data-name="Fill 16" d="M0,0H1.834V22.665H14.668V24.3H0Z" transform="translate(195.302 71.491)" fill="#231f20"/>
      <path id="Fill_18" data-name="Fill 18" d="M14.493,39.669C29.753,30.582,28.979,8.875,28.979,8.875S19.8,4.238,14.493,0C9.189,4.238.007,8.875.007,8.875S-.767,30.582,14.493,39.669Z" transform="translate(85.905 22.965)" fill="#bb1522"/>
      <path id="Fill_20" data-name="Fill 20" d="M15.359,41.789h0l-.44-.263C8.478,37.692,3.858,31.007,1.557,22.195A46.633,46.633,0,0,1,.008,9.954L.026,9.44l.458-.231C.575,9.163,9.646,4.565,14.82.429L15.358,0,15.9.429c5.176,4.136,14.246,8.734,14.337,8.78l.457.231.019.514A46.527,46.527,0,0,1,29.16,22.195c-2.3,8.812-6.921,15.5-13.361,19.331l-.44.263Zm0-39.577A103.824,103.824,0,0,1,1.732,10.52c.014,3.468.737,21.18,13.627,29.243,12.9-8.071,13.615-25.776,13.627-29.243A103.958,103.958,0,0,1,15.358,2.211Z" transform="translate(85.039 21.856)" fill="#b27d2a"/>
      <path id="Fill_22" data-name="Fill 22" d="M6.063,8.943C5.085,6.9,4.032,8.489,4.032,8.489a3.341,3.341,0,0,0,1.317,4.385,21.159,21.159,0,0,0-1.279,7.19V30.2a9.744,9.744,0,0,1-1.016,3.783A9.744,9.744,0,0,1,2.038,30.2V20.064a21.172,21.172,0,0,0-1.279-7.19A3.342,3.342,0,0,0,2.075,8.489S1.021,6.9.043,8.943c0,0-.587-1.494,2.578-2.185V1.794L2.279,1.2A2.365,2.365,0,0,1,3.053,0a2.366,2.366,0,0,1,.774,1.2l-.342.59V6.758c3.165.691,2.578,2.185,2.578,2.185" transform="translate(97.344 25.774)" fill="#fefefe"/>
      <path id="Fill_24" data-name="Fill 24" d="M55.914,0a28.711,28.711,0,0,1-8.262,7.5c-7.223,3.971-16.1,2.145-23.8.809C15.9,6.933,7.947,4.095,0,7.314,5.133,2.227,11.868.488,19.272.232c8.631-.3,16.608.993,25.109,1.823,4.207.411,8.035.217,11.532-2.055" transform="translate(120.622 42.053)" fill="#b27d2a"/>
      <path id="Fill_26" data-name="Fill 26" d="M81.606,1.565c-.482,5.757-2.339,10.8-6.953,15.107a31.02,31.02,0,0,1-15.887,7.661c-7.316,1.314-14.932.948-22.292.59-7.078-.344-14.335-1.023-21.407.119A24.347,24.347,0,0,0,0,33.6c2-4.932,4.537-9.7,8.939-13.41a32,32,0,0,1,15.455-7.193,147.09,147.09,0,0,1,19.974-1.743c6.788-.235,13.876-.439,20.525-1.917,5.669-1.26,13.635-2.989,16.269-8.083A12.181,12.181,0,0,0,81.713,0c-.029.521-.063,1.044-.107,1.565" transform="translate(117.795 15.364)" fill="#b27d2a"/>
      <g id="Group_30" data-name="Group 30" transform="translate(115.802)">
        <path id="Clip_29-2" data-name="Clip 29" d="M0,0H84.483V48.689H0Z" transform="translate(0.214 0.108)" fill="none"/>
        <g id="Group_30-2" data-name="Group 30" clip-path="url(#clip-path)">
          <path id="Fill_28" data-name="Fill 28" d="M84.466,2.163c.31,6.449-3.728,12.377-10.1,15.666-6.494,3.353-14.915,3.773-22.176,4.306-7.566.555-15.264.3-22.769,1.49-7.1,1.13-14.459,3.35-19.3,8.373C5.567,36.728,2.579,43.009,0,48.689c1.775-6.451,3.528-13.314,7.634-19.023a30.608,30.608,0,0,1,15.016-11.2c7.1-2.4,14.953-2.478,22.4-2.877,7.633-.408,15.42-.653,22.87-2.459C75.079,11.4,80.58,8.458,83.352,2.149c.309-.7.581-1.425.841-2.142L84.248,0c.1.718.182,1.442.219,2.163" transform="translate(0.214 0.108)" fill="#b27d2a"/>
        </g>
      </g>
      <path id="Fill_31" data-name="Fill 31" d="M0,0A28.7,28.7,0,0,0,8.262,7.5c7.223,3.971,16.1,2.145,23.8.809,7.952-1.378,15.906-4.217,23.852-1C50.781,2.227,44.045.488,36.641.232c-8.631-.3-16.608.993-25.109,1.823C7.325,2.466,3.5,2.272,0,0" transform="translate(24.259 42.053)" fill="#b27d2a"/>
      <path id="Fill_33" data-name="Fill 33" d="M.107,1.565c.482,5.757,2.339,10.8,6.953,15.107a31.022,31.022,0,0,0,15.887,7.661c7.317,1.314,14.932.948,22.292.59,7.077-.344,14.334-1.023,21.407.119A24.345,24.345,0,0,1,81.713,33.6c-2-4.932-4.537-9.7-8.939-13.41A32,32,0,0,0,57.32,12.995a147.09,147.09,0,0,0-19.974-1.743c-6.788-.235-13.876-.439-20.524-1.917C11.153,8.076,3.187,6.346.552,1.253A12.182,12.182,0,0,1,0,0C.03.521.063,1.044.107,1.565" transform="translate(1.286 15.364)" fill="#b27d2a"/>
      <g id="Group_37" data-name="Group 37">
        <path id="Clip_36-2" data-name="Clip 36" d="M0,0H84.483V48.689H0Z" transform="translate(0.296 0.108)" fill="none"/>
        <g id="Group_37-2" data-name="Group 37" clip-path="url(#clip-path-2)">
          <path id="Fill_35" data-name="Fill 35" d="M.017,2.163c-.31,6.449,3.728,12.377,10.1,15.666C16.615,21.181,25.037,21.6,32.3,22.134c7.566.555,15.264.3,22.769,1.49,7.1,1.13,14.459,3.35,19.3,8.373,4.554,4.73,7.542,11.011,10.121,16.692-1.775-6.451-3.529-13.314-7.634-19.023a30.608,30.608,0,0,0-15.016-11.2c-7.1-2.4-14.953-2.478-22.4-2.877-7.632-.408-15.42-.653-22.87-2.459C9.4,11.4,3.9,8.458,1.131,2.149.822,1.445.55.724.29.007L.235,0C.139.718.053,1.442.017,2.163" transform="translate(0.296 0.108)" fill="#b27d2a"/>
        </g>
      </g>
    </g>
  </g>
</svg>
