<svg xmlns="http://www.w3.org/2000/svg" viewBox="0 0 71.02 96.2">
  <defs>
    <style>
      .cls-1 {
        fill: #bc111f;
      }

      .cls-2 {
        fill: #fff;
      }

    </style>
  </defs>
  <g id="Layer_2" data-name="Layer 2">
    <g id="Layer_4" data-name="Layer 4">
      <g id="Layer_3" data-name="Layer 3">
        <path class="cls-1"
          d="M3.91,24.3c0,7.4,1.6,48.7,31.5,67.3,30-18.7,31.5-59.9,31.5-67.3-4.4-2.3-20.7-10.8-31.5-19.1C24.61,13.5,8.31,22,3.91,24.3Z" />
        <path class="cls-2"
          d="M35.51,96.2l-1-.6c-14.9-8.8-25.6-24.2-30.9-44.5A108.18,108.18,0,0,1,0,22.9V21.7l1.1-.5c.2-.1,21.2-10.7,33.2-20.2l1.2-1,1.2,1c12,9.5,33,20.1,33.2,20.2l1.1.5v1.2a108.18,108.18,0,0,1-3.6,28.2c-5.3,20.3-16,35.7-30.9,44.5ZM3.91,24.3c0,7.4,1.6,48.7,31.5,67.3,30-18.7,31.5-59.9,31.5-67.3-4.4-2.3-20.7-10.8-31.5-19.1C24.61,13.5,8.31,22,3.91,24.3Z" />
        <path class="cls-2"
          d="M42.41,29.6c-2.3-4.7-4.7-1-4.7-1a7.64,7.64,0,0,0,3,10.1,49.76,49.76,0,0,0-3,16.6V78.6c0,4.2-2.4,8.7-2.4,8.7s-2.4-4.5-2.4-8.7V55.3a49.76,49.76,0,0,0-3-16.6,7.64,7.64,0,0,0,3-10.1s-2.4-3.7-4.7,1c0,0-1.4-3.4,6-5V13.2l-.8-1.4A5.88,5.88,0,0,1,35.21,9,5.88,5.88,0,0,1,37,11.8l-.8,1.4V24.6C43.81,26.2,42.41,29.6,42.41,29.6Z" />
      </g>
    </g>
  </g>
</svg>
