<svg xmlns="http://www.w3.org/2000/svg" xmlns:xlink="http://www.w3.org/1999/xlink" width="497" height="162.837" viewBox="0 0 497 162.837">
  <defs>
    <clipPath id="clip-path">
      <path id="Clip_6" data-name="Clip 6" d="M0,0H-246.8V152.565H0Z" transform="translate(0 0.163)" fill="none"/>
    </clipPath>
    <clipPath id="clip-path-2">
      <path id="Clip_6-2" data-name="Clip 6" d="M0,0H246.8V152.565H0Z" transform="translate(0 0.163)" fill="none"/>
    </clipPath>
  </defs>
  <g id="Wings" transform="translate(0 -0.163)">
    <g id="Group_8" data-name="Group 8" transform="translate(497)">
      <path id="Fill_1" data-name="Fill 1" d="M0,0C-6.732,8.961-14.236,17.757-24.189,23.649c-21.147,12.518-47.134,6.763-69.68,2.55-23.283-4.343-46.568-13.292-69.835-3.143C-148.676,7.02-128.955,1.539-107.278.733-82.009-.2-58.654,3.861-33.764,6.478-21.447,7.773-10.238,7.161,0,0" transform="translate(-69.815 131.746)" fill="#b27d2a"/>
      <path id="Fill_3" data-name="Fill 3" d="M-.313,4.9C-1.723,22.948-7.148,38.753-20.635,52.252-33.251,64.879-49.286,72.84-67.066,76.263c-21.384,4.12-43.64,2.972-65.15,1.85-20.684-1.078-41.894-3.208-62.563.373-18.811,3.259-32.574,12.72-44.036,26.814,5.841-15.46,13.261-30.4,26.125-42.029a90.876,90.876,0,0,1,45.167-22.543c19.1-3.562,39.035-4.747,58.376-5.462,19.839-.737,40.553-1.376,59.984-6.007C-32.6,25.311-9.314,19.89-1.614,3.927A39.647,39.647,0,0,0,0,0C-.087,1.634-.184,3.272-.313,4.9" transform="translate(-2.889 48.563)" fill="#b27d2a"/>
      <g id="Group_7" data-name="Group 7">
        <path id="Clip_6-3" data-name="Clip 6" d="M0,0H-246.8V152.565H0Z" transform="translate(0 0.163)" fill="none"/>
        <g id="Group_7-2" data-name="Group 7" clip-path="url(#clip-path)">
          <path id="Fill_5" data-name="Fill 5" d="M-.049,6.777C.856,26.984-10.94,45.558-29.566,55.865-48.537,66.37-73.141,67.688-94.35,69.357c-22.1,1.738-44.592.927-66.517,4.67-20.736,3.542-42.24,10.5-56.369,26.236-13.3,14.821-22.032,34.5-29.567,52.3,5.187-20.213,10.308-41.719,22.3-59.607,10.507-15.671,25.5-28.434,43.867-35.093,20.743-7.518,43.683-7.765,65.435-9.013,22.3-1.279,45.046-2.047,66.809-7.705C-27.471,35.708-11.4,26.5-3.3,6.734c.9-2.206,1.7-4.466,2.458-6.71L-.687,0c.283,2.25.534,4.519.639,6.777" transform="translate(0 0.163)" fill="#b27d2a"/>
        </g>
      </g>
    </g>
    <g id="Group_8-2" data-name="Group 8">
      <path id="Fill_1-2" data-name="Fill 1" d="M0,0C6.732,8.961,14.236,17.757,24.189,23.649c21.147,12.518,47.134,6.763,69.68,2.55,23.283-4.343,46.568-13.292,69.835-3.143C148.676,7.02,128.955,1.539,107.278.733,82.009-.2,58.654,3.861,33.764,6.478,21.447,7.773,10.238,7.161,0,0" transform="translate(69.815 131.746)" fill="#b27d2a"/>
      <path id="Fill_3-2" data-name="Fill 3" d="M.313,4.9C1.723,22.948,7.148,38.753,20.635,52.252,33.251,64.879,49.286,72.84,67.066,76.263c21.384,4.12,43.64,2.972,65.15,1.85,20.684-1.078,41.894-3.208,62.563.373,18.811,3.259,32.574,12.72,44.036,26.814-5.841-15.46-13.261-30.4-26.125-42.029a90.876,90.876,0,0,0-45.167-22.543c-19.1-3.562-39.035-4.747-58.376-5.462C89.307,34.53,68.594,33.89,49.163,29.26,32.6,25.311,9.314,19.89,1.614,3.927A39.647,39.647,0,0,1,0,0C.087,1.634.184,3.272.313,4.9" transform="translate(2.889 48.563)" fill="#b27d2a"/>
      <g id="Group_7-3" data-name="Group 7">
        <path id="Clip_6-4" data-name="Clip 6" d="M0,0H246.8V152.565H0Z" transform="translate(0 0.163)" fill="none"/>
        <g id="Group_7-4" data-name="Group 7" clip-path="url(#clip-path-2)">
          <path id="Fill_5-2" data-name="Fill 5" d="M.049,6.777C-.856,26.984,10.94,45.558,29.566,55.865,48.537,66.37,73.141,67.688,94.35,69.357c22.1,1.738,44.592.927,66.517,4.67,20.736,3.542,42.24,10.5,56.369,26.236,13.3,14.821,22.032,34.5,29.567,52.3-5.187-20.213-10.308-41.719-22.3-59.607C213.992,77.288,199,64.524,180.632,57.866c-20.743-7.518-43.683-7.765-65.435-9.013-22.3-1.279-45.046-2.047-66.809-7.705C27.471,35.708,11.4,26.5,3.3,6.734,2.4,4.527,1.606,2.268.846.023L.687,0C.4,2.25.153,4.519.049,6.777" transform="translate(0 0.163)" fill="#b27d2a"/>
        </g>
      </g>
    </g>
  </g>
</svg>
